<svg xmlns="http://www.w3.org/2000/svg" xmlns:xlink="http://www.w3.org/1999/xlink" viewBox="0 0 93.1 122.6" width="93.1" height="122.6">
<defs>

<g id="v" fill="#988347">
<path d="M15.76 108.45c2.26-3.2 7.84-3.77 10.75-.13 1.97 2.47 1.92 8.17-1.88 11.28-9.15 7.51-19.56-.56-22.42-8.05-3.47-9.1-3.39-22.93 3.95-31.14 8.34-9.34 17.45-13.35 26.56-12.08 10.28 1.44 17.1 5 14.22 8.45-1.61 1.92-7.27-1.44-12.54-1.94s-12.98-1.13-21.57 7.71c-4.12 4.25-7.96 13.99-6.64 20.57 1.03 5.14 4.64 13.28 6.39 12.78 1.77-.49 2.46-6.42 3.18-7.45zm0-94.3c2.26 3.2 7.84 3.77 10.75.13 1.97-2.47 1.92-8.17-1.88-11.28-9.15-7.51-19.55.56-22.41 8.05-3.47 9.1-3.39 22.92 3.95 31.14 8.34 9.34 17.45 13.35 26.56 12.08 10.28-1.44 17.1-5 14.22-8.45-1.61-1.92-7.27 1.44-12.54 1.94s-12.98 1.13-21.57-7.71C8.72 35.8 4.89 26.06 6.21 19.48 7.23 14.34 10.84 6.19 12.6 6.7s2.44 6.42 3.16 7.45z"/>
<path d="M93.1 61.3s-12.79 4.52-19.56 7.9c-6.78 3.39-21.07 17.68-24.45 23.89-3.39 6.2-4.18 8.59-8.09 9.4-5.45 1.13-9.03-2.82-10.34-5.83-1.32-3.01-1.55-9.99 4.32-11.1 6.02-1.12 7.34 3.77 8.09 4.52s4.34-3.59 6.37-6.79c2.03-3.2 11.68-13.84 12.81-15.19 1.13-1.34 3.39-3.6 3.39-3.6-1.13-.94-41.76-.94-42.7-1.13s-1.5-1.13-2.07-2.07c.57-.94 1.13-1.88 2.07-2.07s41.57-.19 42.7-1.13c0 0-2.26-2.25-3.39-3.6-1.13-1.35-10.78-11.99-12.81-15.19-2.03-3.19-5.62-7.54-6.37-6.78-.75.75-2.07 5.64-8.09 4.51-5.87-1.1-5.64-8.09-4.32-11.1 1.31-3.01 4.89-6.96 10.34-5.83 3.91.81 4.7 3.2 8.09 9.41 3.38 6.2 17.68 20.5 24.45 23.88 6.77 3.39 19.56 7.9 19.56 7.9z"/>
</g>
</defs>

<use id="prev" xlink:href="#v" transform="matrix(-1 0 0 1 93.1 0)"/>
</svg>