<svg xmlns="http://www.w3.org/2000/svg" xmlns:xlink="http://www.w3.org/1999/xlink" viewBox="-415 345 140.95 140.99" width="85.95" height="85.99">
<defs>

<g id="v">
<!--<path fill="white" d="M-364.87 419s.03 37.7 0 42.94c-.04 6.25-.4 13.12-6.11 18.79l-5.15 5.26-1.55-7.11c-.12-.4-1.32-4.04-5.88-6.65-1.96-1.12-3.48-2.65-4.62-4.21-1.1 1.09-2.33 2.09-3.59 2.69-1.8.87-4.12 1.05-5.75 1.05-2.36 0-10.41-.47-14.87-6.54-1.33-1.82-2.61-4.57-2.61-8.43V345h111.88c5.1 0 9.37 2.33 12.03 6.56 3.31 5.27 3.65 13.02 1.88 16.68-.61 1.26-1.6 2.49-2.69 3.58 1.55 1.15 3.09 2.66 4.21 4.63 2.6 4.56 6.24 5.76 6.65 5.88l6.99 1.52-5.14 5.18c-6.35 6.39-13.82 6.11-18.96 6.11H-341"/>-->
<path fill="#988347" d="M-373.6 398.93c-9.33-3.24-19.82 2.13-23.41 7.14-6.02 8.4-2.78 24.21 0 29.36 2.78 5.16 6.07 12.49 6.05 16.86-.03 5.95-11.54 6.08-9.42-4.17.88-4.24 2.65-6.02 2.65-6.02s-8.73-2.25-12.34 9.26c-5.15 16.4 12.74 17.59 16.58 15.74 2.82-1.36 6.08-6.35 6.08-6.35s1.57 5.55 5.85 8c6.42 3.66 7.78 9.13 7.78 9.13 9.26-9.19 6.85-22.02 3.97-27.38-1.13-2.11-5.36-5.26-5.36-5.26s6-.36 7.54-7.57c1.09-5.12-3.67-11.57-10.81-12.37-7.14-.79-9.82 4.17-9.82 4.17s6.09-1.66 7.44 3.17c2.18 7.84-9.28 7.92-12.99-.2-2.84-6.22-1.37-13.35.46-16 10.78-15.61 21.19-6.74 24.5-2.55 4.2 5.33 4 11.81 4 11.81s3.21-.07 4.07-7.28c.77-6.68-3.16-16.13-12.82-19.49zm-.2 61.28c2.46 2.33.5 9.72.78 10.98 0 0-1.98-6.22-4.51-8.72-1.83-1.81-2.29-4.4-3.27-4.96-.98-.57 4.05-.1 7 2.7zm32.31-61.01c7.21-.86 7.27-4.07 7.27-4.07s-6.48.2-11.81-4c-4.19-3.31-13.06-13.72 2.55-24.5 2.66-1.83 9.79-3.31 16-.46 8.12 3.72 8.04 15.18.2 12.99-4.83-1.35-3.17-7.44-3.17-7.44s-4.96 2.68-4.17 9.82c.79 7.14 7.24 11.9 12.37 10.81 7.21-1.54 7.57-7.54 7.57-7.54s3.15 4.23 5.26 5.36c5.36 2.88 18.19 5.29 27.38-3.97 0 0-5.47-1.36-9.13-7.78-2.44-4.28-8-5.84-8-5.84s4.98-3.26 6.35-6.08c1.85-3.84.67-21.73-15.74-16.58-11.51 3.61-9.26 12.34-9.26 12.34s1.78-1.77 6.02-2.64c10.25-2.12 10.12 9.39 4.17 9.42-4.38.02-11.71-3.27-16.86-6.05-5.16-2.78-20.96-6.02-29.36 0-5.01 3.59-10.38 14.09-7.14 23.41 3.35 9.67 12.81 13.6 19.5 12.8zm39.07-19.99c.56.98 3.15 1.44 4.96 3.27 2.51 2.52 8.72 4.51 8.72 4.51-1.26-.28-8.65 1.67-10.98-.78-2.79-2.95-3.26-7.97-2.7-7z"/>
<path fill="#988347" d="M-348.98 411.06l-.05-.05c-.38.28-2.15 1.42-3.49.06-1.51-1.53-13.86-13.93-16.44-15.69-2.57-1.76-6.84-2.54-9.74-2.3-2.9.23-10.1 2.61-11.1 4.1-1.01 1.49-1.72-3.66.05-5.83 1.78-2.17 6.92-2.76 6.92-2.76s-3.02-3.2-3.56-7.15c-.28-2.03.57-6.19.74-7.03l.01-.01c.03-.01.07-.02.13-.04.83-.17 4.99-1.02 7.03-.74 3.95.54 7.15 3.56 7.15 3.56s.59-5.14 2.76-6.91c2.17-1.78 7.32-1.07 5.82-.06-1.49 1-3.86 8.2-4.1 11.1-.23 2.9.54 7.17 2.3 9.74 1.76 2.58 14.16 14.93 15.7 16.44 1.53 1.51-.13 3.57-.13 3.57z"/>
</g>
</defs>
<use id="tl" xlink:href="#v"/>



</svg>